<?xml version="1.0" encoding="UTF-8" standalone="no"?>
<!-- Created with Inkscape (http://www.inkscape.org/) -->

<svg
   width="163.25693mm"
   height="61.017567mm"
   viewBox="0 0 163.25693 61.017566"
   version="1.1"
   id="svg22963"
   inkscape:version="1.2.2 (732a01da63, 2022-12-09)"
   sodipodi:docname="dottori_lab_circle3.svg"
   inkscape:export-filename="dottori_lab_circle2.png"
   inkscape:export-xdpi="300"
   inkscape:export-ydpi="300"
   xmlns:inkscape="http://www.inkscape.org/namespaces/inkscape"
   xmlns:sodipodi="http://sodipodi.sourceforge.net/DTD/sodipodi-0.dtd"
   xmlns:xlink="http://www.w3.org/1999/xlink"
   xmlns="http://www.w3.org/2000/svg"
   xmlns:svg="http://www.w3.org/2000/svg">
  <sodipodi:namedview
     id="namedview22965"
     pagecolor="#505050"
     bordercolor="#eeeeee"
     borderopacity="1"
     inkscape:showpageshadow="0"
     inkscape:pageopacity="0"
     inkscape:pagecheckerboard="0"
     inkscape:deskcolor="#505050"
     inkscape:document-units="mm"
     showgrid="false"
     inkscape:zoom="1.1360799"
     inkscape:cx="231.0577"
     inkscape:cy="149.19726"
     inkscape:window-width="1920"
     inkscape:window-height="986"
     inkscape:window-x="-11"
     inkscape:window-y="-11"
     inkscape:window-maximized="1"
     inkscape:current-layer="layer1" />
  <defs
     id="defs22960">
    <radialGradient
       inkscape:collect="always"
       xlink:href="#linearGradient22958"
       id="radialGradient6972-5"
       cx="27.956841"
       cy="-263.78415"
       fx="27.956841"
       fy="-263.78415"
       r="71.914536"
       gradientUnits="userSpaceOnUse"
       gradientTransform="matrix(-0.71231477,0.02668398,-0.01491936,-0.39821614,128.97844,-76.289907)" />
    <linearGradient
       inkscape:collect="always"
       id="linearGradient22958">
      <stop
         style="stop-color:#001452;stop-opacity:1;"
         offset="0.31224492"
         id="stop22954" />
      <stop
         style="stop-color:#000000;stop-opacity:1;"
         offset="1"
         id="stop22956" />
    </linearGradient>
    <radialGradient
       inkscape:collect="always"
       xlink:href="#linearGradient22156"
       id="radialGradient6980-1"
       cx="8.4271812"
       cy="-261.48892"
       fx="8.4271812"
       fy="-261.48892"
       r="71.135887"
       gradientTransform="matrix(0.1888326,-0.35293713,0.34834821,0.18637739,194.71525,82.115263)"
       gradientUnits="userSpaceOnUse" />
    <linearGradient
       inkscape:collect="always"
       id="linearGradient22156">
      <stop
         style="stop-color:#ffffff;stop-opacity:1;"
         offset="0"
         id="stop22152" />
      <stop
         style="stop-color:#7f9acd;stop-opacity:1;"
         offset="0.08265307"
         id="stop22716" />
      <stop
         style="stop-color:#3f67b4;stop-opacity:1;"
         offset="0.2739796"
         id="stop22718" />
      <stop
         style="stop-color:#00359c;stop-opacity:1;"
         offset="0.5734694"
         id="stop22154" />
    </linearGradient>
  </defs>
  <g
     inkscape:label="Layer 1"
     inkscape:groupmode="layer"
     id="layer1"
     transform="translate(-47.961445,-29.946388)">
    <rect
       style="fill:#ffffff;fill-opacity:1;stroke-width:0.634;stroke-linecap:round;stroke-dashoffset:264.619;-inkscape-stroke:none;stop-color:#000000"
       id="rect4078"
       width="163.25693"
       height="61.017567"
       x="47.961445"
       y="29.946388" />
    <g
       id="g23119"
       transform="translate(-26.955691,31.106779)">
      <circle
         style="fill:url(#radialGradient6972-5);fill-opacity:1;stroke:none;stroke-width:2.4647;stroke-linecap:round;stroke-dasharray:none;stroke-opacity:1"
         id="path2923-7-0"
         cx="105.27289"
         cy="29.428253"
         r="28.657619" />
      <rect
         style="fill:#ffffff;fill-opacity:1;stroke:none;stroke-width:1.81684;stroke-linecap:round;stroke-dasharray:none;stroke-opacity:1"
         id="rect4549-5"
         width="6.2366457"
         height="7.1961303"
         x="102.33893"
         y="51.51403" />
      <rect
         style="fill:#ffffff;fill-opacity:1;stroke:none;stroke-width:0.760768;stroke-linecap:round;stroke-dasharray:none;stroke-opacity:1"
         id="rect3329-2-3-9"
         width="3.1755588"
         height="3.1567683"
         x="96.537056"
         y="-2.5022283"
         transform="rotate(26.296456)" />
      <rect
         style="fill:#ffffff;fill-opacity:1;stroke:none;stroke-width:1.52605;stroke-linecap:round;stroke-dasharray:none;stroke-opacity:1"
         id="rect3329-2-8-3"
         width="6.3699636"
         height="6.3322711"
         x="91.428154"
         y="-22.479239"
         transform="rotate(36.456957)" />
      <rect
         style="fill:#ffffff;fill-opacity:1;stroke:none;stroke-width:2.31526;stroke-linecap:round;stroke-dasharray:none;stroke-opacity:1"
         id="rect3329-9"
         width="14.662224"
         height="6.3322711"
         x="80.110847"
         y="33.978123" />
      <rect
         style="fill:#ffffff;fill-opacity:1;stroke:none;stroke-width:1.52605;stroke-linecap:round;stroke-dasharray:none;stroke-opacity:1"
         id="rect3329-2-5"
         width="6.3699636"
         height="6.3322711"
         x="82.353531"
         y="32.847359" />
      <rect
         style="fill:#ffffff;fill-opacity:1;stroke:none;stroke-width:1.42352;stroke-linecap:round;stroke-dasharray:none;stroke-opacity:1"
         id="rect3329-2-7-5"
         width="5.0884328"
         height="6.8976526"
         x="84.289055"
         y="40.210518" />
      <rect
         style="fill:#ffffff;fill-opacity:1;stroke:none;stroke-width:2.70345;stroke-linecap:round;stroke-dasharray:none;stroke-opacity:1"
         id="rect3327-3"
         width="18.935579"
         height="3.2996652"
         x="58.566338"
         y="56.81953"
         transform="matrix(0.96794498,-0.25116232,0.4227361,0.90625283,0,0)" />
      <rect
         style="fill:#ffffff;fill-opacity:1;stroke:none;stroke-width:2.31526;stroke-linecap:round;stroke-dasharray:none;stroke-opacity:1"
         id="rect3325-7"
         width="3.0530596"
         height="13.795305"
         x="103.85686"
         y="44.343445" />
      <rect
         style="fill:#ffffff;fill-opacity:1;stroke:none;stroke-width:3.98109;stroke-linecap:round;stroke-dasharray:none;stroke-opacity:1"
         id="rect3187-9-4-3"
         width="5.3145852"
         height="10.96331"
         x="84.07357"
         y="12.159356" />
      <rect
         style="fill:#ffffff;fill-opacity:1;stroke:none;stroke-width:3.83819;stroke-linecap:round;stroke-dasharray:none;stroke-opacity:1"
         id="rect3187-9-4-7-8"
         width="5.3145852"
         height="10.190393"
         x="87.644981"
         y="13.571931" />
      <rect
         style="fill:#ffffff;fill-opacity:1;stroke:none;stroke-width:2.66511;stroke-linecap:round;stroke-dasharray:none;stroke-opacity:1"
         id="rect3187-9-4-7-6-5"
         width="5.3145852"
         height="4.9132309"
         x="90.416824"
         y="19.475424" />
      <rect
         style="fill:#ffffff;fill-opacity:1;stroke:none;stroke-width:2.66511;stroke-linecap:round;stroke-dasharray:none;stroke-opacity:1"
         id="rect3187-9-4-7-6-3-5"
         width="5.3145852"
         height="4.9132309"
         x="93.615105"
         y="21.554317" />
      <rect
         style="fill:#ffffff;fill-opacity:1;stroke:none;stroke-width:2.79141;stroke-linecap:round;stroke-dasharray:none;stroke-opacity:1"
         id="rect3187-1"
         width="5.3145852"
         height="5.3899689"
         x="80.944756"
         y="17.420767" />
      <rect
         style="fill:#ffffff;fill-opacity:1;stroke:none;stroke-width:2.79141;stroke-linecap:round;stroke-dasharray:none;stroke-opacity:1"
         id="rect3187-4-7"
         width="5.3145852"
         height="5.3899689"
         x="98.146515"
         y="24.121628" />
      <rect
         style="fill:#ffffff;fill-opacity:1;stroke:none;stroke-width:2.99846;stroke-linecap:round;stroke-dasharray:none;stroke-opacity:1"
         id="rect3187-9-0"
         width="5.3145852"
         height="6.2191949"
         x="98.824974"
         y="28.79545" />
      <rect
         style="fill:#ffffff;fill-opacity:1;stroke:none;stroke-width:2.99846;stroke-linecap:round;stroke-dasharray:none;stroke-opacity:1"
         id="rect3187-9-2-4"
         width="5.3145852"
         height="6.2191949"
         x="95.818771"
         y="47.47578"
         transform="rotate(-8.1431252)" />
      <rect
         style="fill:#ffffff;fill-opacity:1;stroke:none;stroke-width:5.16909;stroke-linecap:round;stroke-dasharray:none;stroke-opacity:1"
         id="rect2977-0"
         width="4.9753561"
         height="24.424475"
         x="102.80149"
         y="21.125103" />
      <circle
         style="fill:none;fill-opacity:1;stroke:#ffffff;stroke-width:2.4647;stroke-linecap:round;stroke-dasharray:none;stroke-opacity:1"
         id="path2923-6"
         cx="105.27289"
         cy="29.428253"
         r="28.657619" />
      <rect
         style="fill:#ffffff;fill-opacity:1;stroke:none;stroke-width:19.1032;stroke-linecap:round;stroke-dasharray:none;stroke-opacity:1"
         id="rect2869-6"
         width="1.8092204"
         height="53.334312"
         x="104.45994"
         y="1.9021335" />
      <rect
         style="fill:#ffffff;fill-opacity:1;stroke:none;stroke-width:3.42556;stroke-linecap:round;stroke-dasharray:none;stroke-opacity:1"
         id="rect3401-22"
         width="5.9171987"
         height="10.822931"
         x="106.43633"
         y="24.392967" />
      <rect
         style="fill:#ffffff;fill-opacity:1;stroke:none;stroke-width:3.42556;stroke-linecap:round;stroke-dasharray:none;stroke-opacity:1"
         id="rect3401-2-8"
         width="5.9171987"
         height="10.822931"
         x="108.33116"
         y="-20.545912"
         transform="rotate(24.946353)" />
      <rect
         style="fill:#ffffff;fill-opacity:1;stroke:none;stroke-width:3.75091;stroke-linecap:round;stroke-dasharray:none;stroke-opacity:1"
         id="rect3401-8-0"
         width="5.1711569"
         height="14.848491"
         x="-8.0009422"
         y="-128.15833"
         transform="matrix(-0.71645432,0.69763401,-0.94335601,-0.33178223,0,0)" />
      <rect
         style="fill:#ffffff;fill-opacity:1;stroke:none;stroke-width:3.22362;stroke-linecap:round;stroke-dasharray:none;stroke-opacity:1"
         id="rect3401-27-6"
         width="6.0015368"
         height="9.4498701"
         x="64.208748"
         y="94.159599"
         transform="matrix(0.85793353,-0.5137607,0.69533266,0.71868803,0,0)" />
      <rect
         style="fill:#ffffff;fill-opacity:1;stroke:none;stroke-width:1.07909;stroke-linecap:round;stroke-dasharray:none;stroke-opacity:1"
         id="rect3460-3"
         width="1.9976809"
         height="2.2992175"
         x="126.28366"
         y="32.96043" />
      <rect
         style="fill:#ffffff;fill-opacity:1;stroke:none;stroke-width:1.07909;stroke-linecap:round;stroke-dasharray:none;stroke-opacity:1"
         id="rect3460-1-6"
         width="1.9976809"
         height="2.2992175"
         x="128.56403"
         y="34.562344" />
      <rect
         style="fill:#ffffff;fill-opacity:1;stroke:none;stroke-width:2.31526;stroke-linecap:round;stroke-dasharray:none;stroke-opacity:1"
         id="rect3506-9"
         width="9.0837946"
         height="3.1284437"
         x="117.72755"
         y="38.350403" />
      <rect
         style="fill:#ffffff;fill-opacity:1;stroke:none;stroke-width:2.66282;stroke-linecap:round;stroke-dasharray:none;stroke-opacity:1"
         id="rect3508-1"
         width="3.9181283"
         height="8.2994766"
         x="90.722328"
         y="70.073502"
         transform="matrix(0.96775922,-0.25187714,0.44771803,0.89417479,0,0)" />
      <rect
         style="fill:#ffffff;fill-opacity:1;stroke:none;stroke-width:2.31526;stroke-linecap:round;stroke-dasharray:none;stroke-opacity:1"
         id="rect3510-3"
         width="19.136377"
         height="2.3454051"
         x="75.930275"
         y="83.468109"
         transform="rotate(-34.620316)" />
      <rect
         style="fill:#ffffff;fill-opacity:1;stroke:none;stroke-width:2.1991;stroke-linecap:round;stroke-dasharray:none;stroke-opacity:1"
         id="rect3525-7"
         width="8.8485737"
         height="8.79527"
         x="116.60812"
         y="15.215652" />
      <rect
         style="fill:#ffffff;fill-opacity:1;stroke:none;stroke-width:2.32334;stroke-linecap:round;stroke-dasharray:none;stroke-opacity:1"
         id="rect3540-9"
         width="9.2217073"
         height="3.8379359"
         x="75.083015"
         y="91.35601"
         transform="rotate(-42.628515)" />
      <rect
         style="fill:#ffffff;fill-opacity:1;stroke:none;stroke-width:2.31526;stroke-linecap:round;stroke-dasharray:none;stroke-opacity:1"
         id="rect3555-8"
         width="5.9701228"
         height="5.5703378"
         x="124.36395"
         y="17.481098" />
      <rect
         style="fill:#ffffff;fill-opacity:1;stroke:none;stroke-width:2.31526;stroke-linecap:round;stroke-dasharray:none;stroke-opacity:1"
         id="rect3557-5"
         width="1.4392259"
         height="3.4648032"
         x="105.84058"
         y="19.080236" />
      <rect
         style="fill:#ffffff;fill-opacity:1;stroke:none;stroke-width:2.31526;stroke-linecap:round;stroke-dasharray:none;stroke-opacity:1"
         id="rect4585-3"
         width="5.7169251"
         height="5.1039219"
         x="102.64543"
         y="52.606773" />
      <path
         style="fill:url(#radialGradient6980-1);fill-opacity:1;stroke-width:0.0877993"
         d="m 102.03977,57.363672 c -5.803681,-0.74584 -11.945838,-3.511622 -15.820238,-7.12378 -2.13386,-1.989434 -3.58115,-3.732999 -5.09211,-6.134528 -3.27677,-5.208141 -4.71791,-11.475476 -4.03665,-17.554903 0.67219,-5.998482 3.15489,-11.335217 7.51331,-16.15035 4.17999,-4.6180136 11.385467,-8.1998946 18.033958,-8.9647701 1.55497,-0.178889 4.96456,-0.134596 6.39212,0.08304 3.66583,0.5588735 7.50474,1.9582629 10.6877,3.8959505 3.95687,2.408826 7.72403,6.1551706 9.96466,9.9095946 2.20987,3.702892 3.31968,7.025142 3.82359,11.446031 0.1938,1.700285 0.13294,4.968175 -0.12346,6.628861 -0.8745,5.664168 -3.25254,10.725232 -6.93862,14.767129 -3.62757,3.977746 -8.39401,6.946593 -13.31394,8.292783 -1.52732,0.534976 -9.22378,1.439465 -5.03644,0.915802 0,0 -0.634,-1.556486 -0.81082,-2.373697 -0.68096,-3.147166 -1.36877,-6.423815 -0.93572,-9.614557 0.51877,-3.822285 2.17444,-10.802166 4.1502,-10.802166 1.31616,0 3.32169,0.604048 4.73541,1.426256 1.54647,0.899424 2.50081,1.826771 3.65039,3.547164 0.69818,1.044843 1.72607,2.898166 1.64952,2.974115 -0.0151,0.01494 -0.65954,-0.144594 -1.43217,-0.354509 -3.20128,-0.869745 -4.81422,-1.72239 -7.28736,-3.852308 -1.42748,-1.229375 -2.50741,-2.072524 -2.65455,-2.072524 -0.0558,0 -0.0212,0.218336 0.0869,0.548744 0.24978,0.763008 0.31182,2.6997 0.12169,3.798443 -0.0753,0.435221 -0.39458,1.556604 -0.70947,2.491965 -0.3149,0.935356 -0.6141,1.929774 -0.66488,2.209817 -0.94537,3.125512 0.35563,2.647058 0.77463,0.199124 0.0613,-0.233335 0.38225,-1.115665 0.7132,-1.960733 0.33095,-0.84507 0.61916,-1.595756 0.64046,-1.668191 0.13138,-0.446581 1.21765,2.402598 1.39089,3.648154 0.15489,1.113636 -0.0528,2.551241 -0.66944,4.633089 -0.17159,0.579344 -0.40852,1.452026 -0.5265,1.93929 -0.11799,0.487264 -0.25636,0.899887 -0.3075,0.916934 -0.76568,1.948843 0.71239,1.251938 1.01738,-0.58731 0.12997,-0.587255 0.77039,-2.528961 0.86547,-2.624046 0.019,-0.01897 0.21896,0.261453 0.44442,0.623176 1.75952,2.923188 1.84919,1.387318 0.86661,-0.142486 -0.33171,-0.521858 -0.73293,-1.585192 -0.74578,-1.976518 -0.006,-0.180519 0.019,-0.822088 0.0554,-1.425714 0.0568,-0.942167 0.0405,-1.221189 -0.11549,-1.971508 -0.0999,-0.480709 -0.17331,-0.881405 -0.16307,-0.890439 0.066,-0.05828 3.30466,2.37275 3.4612,2.598119 0.10671,0.153613 0.35498,0.799323 0.55173,1.434907 0.19674,0.635585 0.47391,1.46966 0.61595,1.853498 0.25347,0.759485 0.008,2.947361 1.23515,1.898935 0.49541,-0.695146 -0.5384,-2.177343 -0.70625,-2.755018 -0.22652,-0.782215 -0.44286,-1.516874 -0.48076,-1.632573 -0.0607,-0.185243 -0.008,-0.163463 0.44592,0.182415 0.28315,0.216029 0.77164,0.547752 1.08553,0.737161 2.52184,2.117263 3.28428,0.394706 0.6148,-0.577408 -0.49298,-0.251502 -1.67605,-1.158653 -2.041,-1.565007 -0.18315,-0.203926 -0.67222,-1.056216 -1.10448,-1.924777 -0.42667,-0.85734 -0.97507,-1.879838 -1.21865,-2.27223 l -0.44289,-0.71343 0.88887,0.414762 c 1.064,0.496482 2.02711,0.816311 4.13744,1.373953 1.83305,0.484375 1.86094,0.503555 2.42402,1.666886 0.8492,2.034738 1.76418,2.31765 0.92783,0.194534 -0.0806,-0.210956 -0.46271,-1.011115 -0.84923,-1.778135 -0.38651,-0.767016 -0.70274,-1.428554 -0.70274,-1.470086 0,-0.04153 0.2546,0.124574 0.56577,0.369115 0.31118,0.244545 0.97249,0.690863 1.46958,0.991819 3.03003,1.097696 2.36043,0.462618 0.70822,-0.528174 -1.56871,-0.943286 -3.33011,-2.626288 -4.52325,-4.321951 -0.42182,-0.599476 -0.75597,-1.100927 -0.74257,-1.114337 0.0267,-0.02666 0.56993,0.09904 3.09141,0.715168 1.61546,0.394746 3.46597,1.001671 4.60537,1.510454 3.02956,2.044892 3.61197,0.536949 0.47104,-0.666193 -0.70369,-0.358657 -2.13079,-0.933169 -3.43645,-1.383417 -0.74759,-0.257795 -1.30353,-0.487659 -1.23543,-0.510808 0.0681,-0.02315 0.79547,-0.240614 1.6164,-0.483263 1.69826,-0.501973 3.2902,-0.729621 4.58356,-0.655772 2.61108,0.917907 2.33874,-0.592466 -0.83624,-0.691462 l -1.23205,-0.108179 0.78178,-0.614596 c 0.84249,-0.662318 0.95877,-0.887357 0.56687,-1.097093 -0.27756,-0.148543 -0.37518,-0.0994 -1.40554,0.707613 -1.42585,1.116775 -3.01716,1.729614 -5.04847,1.944251 -0.77042,0.08141 -1.05895,0.07416 -1.75599,-0.04412 -1.76291,-0.299143 -3.31245,-0.88513 -5.69802,-2.154817 -1.56232,-0.831525 -2.39219,-1.549486 -2.8382,-2.455462 -0.27223,-0.55298 -0.28763,-0.636058 -0.28763,-1.551897 0,-0.889234 0.0206,-1.009588 0.2539,-1.485332 0.55539,-1.132413 2.19737,-2.482659 4.30411,-3.539385 1.97015,-0.988209 2.72791,-1.21324 5.97793,-1.77525 1.11066,-0.192059 2.42311,-0.469607 2.91656,-0.616767 1.05539,-0.31476 1.38345,-0.326448 2.58975,-0.09224 0.85853,0.161936 3.10546,1.015629 3.25878,0.577866 0.27529,-1.030573 -2.5095,-1.167982 -2.93512,-1.275098 -0.58634,-0.147563 -1.08105,-0.268299 -1.09938,-0.268299 -0.0183,0 -0.0333,-0.05026 -0.0333,-0.111686 0.19801,-0.540551 1.91445,-1.639168 1.93159,-2.072257 0,-0.239292 -0.37042,-0.625642 -0.59986,-0.625642 -0.92441,0.768746 -1.67084,2.037859 -2.86822,2.679596 -0.65404,0.321753 -1.6612,0.540009 -3.42419,0.742034 -0.86921,0.0996 -1.73385,0.206222 -1.92141,0.236926 -0.2138,0.03499 -0.32845,0.02299 -0.30731,-0.03216 0.0603,-0.157314 2.34979,-2.126687 3.25913,-2.803436 2.07966,-0.950539 5.07006,-4.052014 1.28934,-1.878639 -1.50207,0.849792 -2.62852,1.648556 -3.8638,2.739832 -0.31804,0.280971 -0.59958,0.510851 -0.62565,0.510851 -0.0261,0 0.0436,-0.250677 0.15482,-0.55706 0.11121,-0.306384 0.3672,-1.205234 0.56887,-1.997439 0.56337,-2.213073 0.65234,-2.331323 2.60411,-3.460982 0.93665,-0.642717 3.02162,-0.517147 2.34961,-1.661188 -0.79508,-0.955584 -1.48905,0.359283 -2.10241,0.646742 -1.02666,0.451185 -2.33987,1.26573 -2.7394,1.699165 -0.37989,0.412136 -0.71719,1.280151 -1.03245,2.656941 -0.40955,1.788615 -0.954,2.87821 -1.9336,3.86969 -0.83181,0.84191 -1.55491,1.32438 -3.3384,2.227455 -1.83645,0.929897 -2.8457,1.261262 -3.86318,1.268407 -0.71614,0.005 -0.83397,-0.01869 -1.25719,-0.253148 -0.25684,-0.142279 -0.58862,-0.397224 -0.73728,-0.566537 -0.38202,-0.43509 -0.74885,-1.271878 -0.85066,-1.940454 -0.0963,-0.632154 -0.2242,-3.602997 -0.35922,-8.340958 -0.0489,-1.714284 -0.13118,-4.47265 -0.18297,-6.1296946 -0.0709,-1.215427 0.66009,-5.085141 -0.8008,-4.5745366 -0.60586,2.2878026 -0.0928,3.6656126 -0.15766,5.4362596 -0.0489,1.3279676 -0.12769,3.4614956 -0.17513,4.7411766 -0.0474,1.279677 -0.12854,3.47247 -0.18024,4.872871 -0.15431,4.179529 -0.23031,4.699804 -0.81763,5.596973 -0.57907,0.884565 -1.6099,1.310182 -2.72658,1.125766 -0.93138,-0.153811 -1.757071,-0.462422 -3.277691,-1.225059 -1.7729,-0.889179 -2.90169,-1.633461 -3.63778,-2.398644 -0.92867,-0.965372 -1.36448,-1.940247 -1.95453,-4.372121 -0.12302,-0.507042 -0.34468,-1.16821 -0.49258,-1.469265 -0.35708,-0.890925 -4.974887,-3.942779 -5.401167,-2.519644 0.0911,0.914065 1.81872,0.916126 2.41216,1.24971 2.178647,1.226326 2.162597,1.206656 2.683927,3.290342 0.20808,0.831679 0.48183,1.784904 0.60832,2.118282 0.1265,0.333378 0.2196,0.61521 0.2069,0.626292 -0.0127,0.01108 -0.53672,-0.393555 -1.16448,-0.899202 -1.525227,-1.228525 -2.267517,-1.744689 -3.446127,-2.396349 -4.3417,-2.343595 -3.12462,-0.751666 -0.40166,0.752547 0.47363,0.286207 1.16606,0.746203 1.53874,1.022208 0.75611,0.559974 3.688427,2.979061 3.650377,3.011467 -0.0134,0.0114 -0.43919,-0.03068 -0.94624,-0.09352 -0.50704,-0.06284 -1.514537,-0.178614 -2.238887,-0.257277 -1.59913,-0.173654 -2.0151,-0.220449 -2.88574,-0.689598 -1.10927,-0.597739 -1.9627,-2.496343 -2.7558,-2.587579 -0.19849,-0.01989 -0.30443,0.02503 -0.4082,0.173186 -0.27967,0.399281 -0.19176,0.56258 0.82973,1.541417 0.53342,0.511146 0.9384,0.960071 0.89994,0.997613 -0.0384,0.03754 -0.54107,0.186931 -1.11694,0.331975 -0.92679,0.334597 -2.37894,-0.307116 -2.42105,0.610543 0.27124,1.220141 1.81704,0.27972 2.79075,0.103366 1.11885,-0.217232 1.58447,-0.218914 2.25772,-0.0082 0.76015,0.237953 2.05871,0.492165 3.84052,0.751833 3.117317,0.454297 4.553197,1.000041 7.178317,2.7283 2.793531,1.839132 3.599161,3.68323 2.52713,5.784585 -0.2663,0.521989 -1.07871,1.327826 -1.77717,1.76278 -1.00301,0.624606 -3.43431,1.765084 -4.56924,2.143336 -1.82414,0.607957 -2.9578,0.731913 -4.521667,0.494406 -1.93678,-0.294142 -3.14469,-0.8159 -4.68796,-2.024971 -0.87864,-0.688365 -0.97113,-0.73962 -1.13655,-0.629782 -0.50168,0.333106 -0.43363,0.463549 0.65723,1.259771 l 0.70283,0.512996 -0.33591,0.02116 c -0.18476,0.01164 -0.76187,0.0624 -1.28249,0.112818 -2.78975,-0.327452 -2.71428,1.206409 0.56589,0.761728 1.17789,-0.0068 1.46191,0.02116 2.26837,0.223122 1.62562,0.407131 3.033,0.840801 2.89739,0.892797 -0.0724,0.02777 -0.84288,0.284283 -1.71209,0.57002 -0.86922,0.285737 -2.02351,0.716427 -2.5651,0.957083 -4.13044,1.51384 -1.97391,1.718464 -0.046,0.938528 1.4694,-0.590837 2.61002,-0.945689 4.64128,-1.443928 1.20129,-0.29466 2.416357,-0.595516 2.700167,-0.668568 0.2838,-0.07305 0.53207,-0.116759 0.5517,-0.09713 0.0836,0.08356 -1.54102,2.186374 -2.238757,2.897788 -0.7464,0.761027 -2.25147,1.961547 -3.14385,2.507681 -2.84071,2.81757 -1.08441,1.665567 0.86888,0.426944 0.59149,-0.373944 1.2631,-0.822216 1.49248,-0.996159 0.22937,-0.17394 0.41704,-0.27878 0.41704,-0.232977 0,0.0458 -0.31246,0.700197 -0.69437,1.454214 -0.38191,0.754017 -0.76043,1.569789 -0.84116,1.812828 -0.2043,0.594563 -0.98419,1.173019 -0.42811,1.664707 0.32393,0.25481 0.6137,0.22843 0.92648,-0.08435 0.42572,-0.681602 0.097,-1.123956 0.45358,-1.851565 0.55442,-1.119753 0.49077,-1.077907 2.383477,-1.566813 2.01752,-0.521144 3.23423,-0.937269 4.28814,-1.466571 0.78567,-0.394586 0.7908,-0.395794 0.62769,-0.147523 -0.41811,0.636401 -0.95854,1.608424 -1.60793,2.892009 -0.38874,0.768399 -0.85079,1.565183 -1.02678,1.770628 -1.38018,1.727884 -4.758807,2.075412 -3.642307,3.371152 1.335857,0.28302 2.071617,-1.083549 3.143327,-1.824089 0.30413,-0.211259 0.56554,-0.38411 0.58092,-0.38411 0.0154,0 -0.17683,0.715431 -0.42712,1.58985 -1.33967,2.669788 -0.24731,4.05417 0.59425,0.806084 0.16945,-0.520981 0.45008,-1.408725 0.62362,-1.972764 0.24199,-0.786498 0.3797,-1.089694 0.59087,-1.300864 0.22442,-0.224413 3.12564,-2.347553 3.33651,-2.441686 0.0332,-0.01478 0.007,0.151365 -0.059,0.369242 -0.26369,0.87618 -0.33276,1.771615 -0.22302,2.891157 0.1027,1.047644 0.10034,1.082497 -0.11976,1.771073 -0.12349,0.386318 -0.34422,0.909821 -0.49053,1.163344 -2.70925,2.347218 -0.94854,3.561319 0.79437,0.246641 0.3323,-0.526158 0.39091,-0.580429 0.48615,-0.450184 0.16441,3.870571 2.708421,5.821099 1.128801,0.640593 -0.727511,-2.559692 -0.859651,-3.312382 -0.803501,-4.576845 0.0337,-0.760528 0.10757,-1.263469 0.25977,-1.77034 0.24734,-0.823694 0.955441,-2.412671 1.061371,-2.381716 0.33528,2.181022 4.05111,10.778112 2.2118,3.484824 -0.0351,-0.217304 -0.31472,-1.145783 -0.62143,-2.063287 -0.97527,-2.917445 -1.14868,-4.900686 -0.57665,-6.595101 0.10197,-0.302047 0.12489,-0.471591 0.0635,-0.469523 -0.18134,0.0061 -1.26136,0.831648 -2.465311,1.884454 -0.66268,0.579476 -1.51829,1.27858 -1.90137,1.553566 -0.8362,0.600246 -2.64543,1.533132 -3.67529,1.895074 -0.98495,0.346157 -3.345487,1.005392 -3.401057,0.949822 -0.0528,-0.05282 0.527197,-1.122813 1.192577,-2.199975 1.56387,-2.531721 3.01623,-3.859158 5.33497,-4.876075 1.7072,-0.748721 3.666551,-1.058842 4.737261,-0.749797 1.44627,0.417452 2.42444,7.047788 2.74804,10.723614 0.28341,3.219171 -0.14967,6.488121 -0.72877,9.66743 -0.14597,0.801438 -0.68734,2.345218 -0.68734,2.345218 1.73308,0.183268 -0.31337,-0.02997 -0.75059,-0.08521 z M 92.102099,45.207858 c 0.22985,-0.229853 0.22326,-0.596453 -0.0153,-0.850386 -0.24685,-0.262768 -0.55228,-0.258201 -0.82278,0.01231 -0.40228,0.402273 -0.16156,1.013685 0.39909,1.013685 0.14633,0 0.34144,-0.07805 0.439,-0.175602 z m 27.390041,-0.01654 c 0.2393,-0.256862 0.22587,-0.559169 -0.0365,-0.82153 -0.41127,-0.411264 -1.01369,-0.148926 -1.01369,0.441429 0,0.530844 0.68033,0.777082 1.05017,0.380101 z M 90.947429,33.461238 c 0.26162,-0.275217 1.38651,-0.951743 2.12555,-1.278334 0.8994,-0.397452 1.99369,-0.472851 3.902,-0.268857 l 0.439,0.04693 0.42634,-0.581457 c 0.23449,-0.319805 0.41228,-0.591714 0.3951,-0.604247 -0.0172,-0.01255 -0.44011,-0.07188 -0.93983,-0.13189 -2.30447,-0.276703 -3.51213,-1.006508 -4.73883,-2.863732 -0.31895,-0.482897 -0.72953,-1.083733 -0.91239,-1.335191 -0.4365,-0.556411 -0.27026,-1.501013 -0.97565,-1.518292 -0.419317,0 -0.694187,0.315373 -0.657747,0.754671 0.13691,0.585924 0.679807,0.764541 1.009507,1.270882 0.26308,0.411713 1.16942,2.129353 1.16942,2.216205 0,0.07018 -3.443317,-0.916054 -3.893687,-1.11523 -1.7324,-0.766151 -3.22108,-2.268922 -4.22761,-4.267632 -0.39092,-0.776257 -0.50944,-0.870621 -0.81082,-0.64561 -0.12752,0.09521 -0.24471,0.21166 -0.26041,0.258783 -0.0157,0.04712 0.26669,0.591606 0.62755,1.209967 0.40881,0.700524 0.5995,1.101621 0.50592,1.064135 -0.0826,-0.03308 -0.60455,-0.161737 -1.15989,-0.285889 -0.95845,-0.10692 -1.62043,-1.194801 -2.28954,-0.554833 -0.32746,0.32746 -0.34321,0.718356 -0.0411,1.020435 0.86356,0.335765 1.31307,0.01949 2.09697,0.239632 1.41778,0.40048 1.79679,0.580942 2.75615,1.312309 0.50544,0.385321 1.23202,0.890717 1.61463,1.123104 l 0.69565,0.422517 -0.63842,0.04834 c -0.35113,0.02658 -1.39217,0.06842 -2.31342,0.09297 -5.60334,0.148767 -4.03503,0.974119 -0.53714,0.927339 0.68549,-0.0045 1.30561,-0.0056 1.37805,-0.0024 0.21657,0.0096 -1.00389,0.686082 -2.494,1.382449 -0.78681,0.677339 -2.5611,0.434663 -2.81628,0.899962 -0.18826,0.364054 -0.16671,0.564501 0.094,0.874347 0.18247,0.216854 0.29503,0.270132 0.57069,0.270132 0.77366,-0.363499 1.12538,-0.734451 1.90243,-1.036725 1.27218,-0.491345 1.93589,-0.803144 3.45283,-1.6221 1.43767,-0.776158 2.75442,-1.020268 4.129257,-0.765522 0.60957,0.112953 1.37291,0.507516 1.54714,0.799701 0.22409,0.375817 0.0872,0.647013 -0.57022,1.12977 -0.53213,0.390745 -0.63034,0.430897 -1.01503,0.414993 -0.372477,-0.01542 -0.453507,0.01447 -0.645987,0.238165 -0.40297,0.468304 -0.10286,1.10512 0.52081,1.10512 0.264747,0 0.401057,-0.05765 0.579037,-0.244883 z m 29.925301,0.05398 c 0.1993,-0.187233 0.2606,-0.523189 0.14868,-0.81486 -0.0877,-0.228585 -0.53044,-0.412542 -0.849,-0.35278 -0.24379,0.04573 -0.36436,-0.0067 -0.85045,-0.369628 -0.98413,-0.734834 -1.02572,-1.133636 -0.16186,-1.552144 1.01,-0.489309 2.30129,-0.629488 3.36804,-0.365628 0.28781,0.07119 1.25558,0.502917 2.15059,0.959394 1.11416,0.443629 5.48351,3.049846 5.61616,1.692685 -0.23555,-0.984032 -1.65818,-0.748637 -2.34398,-1.060368 -0.56996,-0.259485 -1.53017,-0.732423 -2.13379,-1.050972 l -1.0975,-0.57919 1.41665,-0.0016 c 0,0 4.44872,0.424617 4.24179,-1.014382 -0.12512,-0.870071 -0.89536,0.102895 -2.63364,0.134189 -1.00315,-0.02997 -4.11512,-0.13279 -4.37463,-0.163343 l -0.47184,-0.05555 0.65694,-0.415882 c 0.36133,-0.228737 1.00176,-0.691725 1.4232,-1.028864 0.88854,-0.710804 1.3713,-0.962179 2.46332,-1.282657 0.76464,-0.336083 2.34479,0.04872 2.63239,-0.47419 0.19698,-0.380926 0.16423,-0.600254 -0.13417,-0.898663 -0.72212,-0.446805 -1.57516,0.354725 -2.24332,0.498952 -0.52652,0.112707 -1.0362,0.236272 -1.13265,0.274595 -0.16761,0.0666 -0.16914,0.06015 -0.0347,-0.145594 0.53933,-0.8254 1.13155,-1.965914 1.08955,-2.098258 -0.0268,-0.08451 -0.15121,-0.200332 -0.27641,-0.257376 -0.30441,-0.138697 -0.40848,-0.04345 -0.79823,0.730514 -1.3303,2.641702 -3.0641,4.002708 -6.25811,4.912505 -0.74849,0.213203 -1.43004,0.4154 -1.51455,0.449324 -0.24899,0.09995 -0.18889,-0.08493 0.3951,-1.215583 0.50618,-0.979988 0.72855,-1.273389 1.42274,-1.877217 0.46852,-0.407537 0.13512,-1.166484 -0.51243,-1.166484 -0.38657,0 -0.66886,0.326993 -0.66886,0.774779 0,0.248287 -0.16452,0.555527 -0.80465,1.502703 -0.44256,0.654827 -0.98022,1.39946 -1.19481,1.654736 -0.88831,1.056751 -2.32425,1.680882 -4.21236,1.830904 -0.39839,0.03164 -0.72262,0.08136 -0.72052,0.110447 0.002,0.02909 0.22928,0.298266 0.50484,0.598162 l 0.50103,0.545265 0.96579,-0.09038 c 1.0731,-0.100421 1.96632,-0.05184 2.73701,0.148882 0.63077,0.164272 2.35694,1.113879 2.6432,1.454082 0.26748,0.317876 0.74168,0.344851 1.04545,0.05947 z m -10.54266,-9.869515 c 0.11591,-0.03088 0.42326,-0.427247 0.82163,-1.059551 0.97667,-1.550208 2.1051,-2.656778 3.22861,-3.166071 0.39168,-0.177546 0.66244,-0.232777 1.20031,-0.244856 2.24314,-1.007365 -0.14399,-0.590271 -1.30828,-0.6727 -0.0599,-0.06092 0.84178,-1.864322 1.13887,-2.277864 0.47947,-0.667377 0.40501,-0.782936 -0.21504,-0.333772 -0.87141,0.631241 -1.56012,1.603378 -1.92253,2.713714 -0.0621,0.190123 -0.22445,0.390996 -0.42587,0.526796 -0.17906,0.120724 -0.71229,0.589809 -1.18496,1.042412 -0.97393,0.932567 -0.99573,0.92347 -0.68627,-0.286502 0.38196,-1.493438 1.09643,-2.431257 2.68034,-3.51821 0.91566,-0.628363 1.94448,-1.393734 2.76309,-2.055535 0.53488,-0.432416 1.62413,-0.808675 2.22523,-1.461506 0.53469,-0.580696 2.89514,-2.700141 1.13258,-2.079689 -0.15334,0.05061 -1.86895,1.516511 -2.24615,1.737317 -0.3772,0.220803 -0.70176,0.385513 -0.72126,0.366018 -0.10614,-1.649628 2.09485,-3.350275 0.87775,-3.8597476 -0.57346,-0.24005 -0.83043,0.8926536 -1.00527,1.5709256 -0.55907,1.860842 -1.08689,2.974478 -1.69626,3.578944 -0.48492,0.481008 -2.6028,1.957513 -2.6028,1.814573 0,-0.04737 0.0655,-0.473919 0.1456,-0.947889 0.13013,-0.770264 0.13261,-0.968978 0.0233,-1.871467 -0.18279,-1.509872 -0.15769,-2.118689 0.12128,-2.941294 2.53654,-4.3496036 1.45433,-5.1714846 -0.3925,-1.1825126 -0.25418,0.4799956 -0.49433,0.8405346 -0.53367,0.8011986 -0.16075,-0.160757 -0.68233,-1.8092256 -0.85415,-2.6995836 -0.2625,-0.969476 0.55699,-2.433867 -0.56472,-2.494371 -1.49127,0.08156 0.22154,4.476057 0.47392,5.3046966 0.9475,3.023095 1.04574,4.300616 0.4719,6.136552 -0.23563,0.753886 -0.98281,2.431074 -1.08304,2.431074 -0.93898,-1.79484 -3.05764,-8.805898 -2.32896,-3.445631 0.0896,0.791189 0.36807,1.73206 0.84856,2.866828 0.7453,1.760163 0.81432,2.076831 0.815,3.73959 4e-4,1.117038 -0.0316,1.533375 -0.14,1.818594 -0.0773,0.203444 -0.12235,0.388142 -0.10006,0.410434 0.0223,0.02228 0.22459,-0.01618 0.44956,-0.08552 0.22496,-0.06933 0.49235,-0.148256 0.5942,-0.175398 z m -8.99172,-0.277974 c -0.0991,-0.353199 -0.14206,-0.874084 -0.14305,-1.734042 -0.002,-1.448822 0.10396,-1.899325 0.87443,-3.729356 0.54342,-1.290727 0.83171,-2.282371 0.83171,-2.860875 0.57934,-2.958307 -0.67795,-2.558186 -0.84829,0.247251 -0.1498,0.73616 -0.55327,1.718998 -1.09274,2.661858 l -0.37853,0.66159 -0.28869,-0.572642 c -1.370511,-2.718524 -1.474281,-4.594661 -0.432651,-7.821764 0.388411,-1.2033706 0.720711,-2.5202986 0.852751,-3.3795306 0.0951,-0.772754 0.82334,-1.349883 0.26332,-1.939091 -2.135031,-0.8446466 -0.50325,5.0214026 -2.028421,4.9660116 -0.0387,-0.02395 -0.37955,-0.4358826 -0.62708,-0.8991536 -0.13777,-2.338965 -1.99851,-1.830019 -0.71218,0.158677 0.66698,1.0899226 0.76694,1.8046906 0.60106,4.2977706 -0.0593,0.890733 -0.0459,1.22827 0.0712,1.791675 0.0793,0.381799 0.12629,0.712132 0.10435,0.734073 -0.0933,0.09326 -2.27823,-1.440342 -2.68282,-1.883019 -0.58079,-0.635481 -1.03533,-1.60151 -1.60783,-3.417087 -0.59581,-0.66069 0.0547,-3.5315586 -1.31814,-2.8304736 -0.2867,0.152691 -0.40538,0.347906 -0.40848,0.671875 0.28256,0.872383 0.59487,0.894037 0.77061,1.6671866 0.10918,0.484139 0.33111,1.288586 0.49317,1.787662 0.16206,0.499076 0.28071,0.92237 0.26367,0.940653 -0.0171,0.01829 -0.22015,-0.08693 -0.45136,-0.233817 -0.23122,-0.146886 -0.68708,-0.397512 -1.01304,-0.556942 -3.594507,-1.667325 -2.525627,-0.304956 -0.0118,0.92031 0.4146,0.247155 1.17457,0.767673 1.68882,1.156701 0.51424,0.389031 1.59257,1.170034 2.39628,1.735559 0.8037,0.565525 1.67357,1.237149 1.93302,1.492497 0.75177,0.739847 1.2554,1.851885 1.43964,3.178807 l 0.061,0.438999 -0.73679,-0.702396 c -0.40524,-0.386322 -0.95345,-0.885003 -1.21827,-1.108189 -0.42591,-0.358968 -0.50963,-0.486853 -0.72551,-1.108319 -0.13423,-0.386389 -0.3589,-0.875451 -0.49926,-1.086801 -0.32654,-0.491696 -1.4207,-1.322519 -1.55925,-1.183974 -0.0267,0.02674 0.17455,0.422596 0.44731,0.879675 0.50309,0.843045 0.84555,1.555272 0.84555,1.758521 0,0.225859 -0.82838,-0.05296 -1.0929,-0.367856 -0.19383,-0.23074 -0.3042,-0.285346 -0.57672,-0.285346 -0.5907,0 -0.91402,0.683232 -0.54121,1.143638 0.12762,0.157601 0.23803,0.193605 0.54875,0.178929 0.21394,-0.01012 0.49941,-0.02108 0.63437,-0.02439 0.35705,-0.0087 1.60476,0.641637 2.19857,1.146021 0.72938,0.619529 1.37604,1.413663 1.99096,2.445037 0.437561,0.733905 0.583761,0.910096 0.814841,0.982024 0.37862,0.117847 0.59579,0.164531 0.82202,0.176709 0.18846,0.01016 0.18865,0.0082 0.0476,-0.49466 z m -5.770641,21.349604 c 0.41266,-0.987619 1.70176,-3.013706 2.48105,-3.89945 0.62787,-0.713653 1.72513,-1.712092 1.88154,-1.712092 0.294791,0 0.0925,1.330569 -0.33051,2.173821 -0.34629,0.690318 -0.77422,1.213236 -1.47078,1.797243 -0.61336,0.514246 -2.56691,1.955405 -2.65063,1.955405 -0.0232,0 0.017,-0.141716 0.0893,-0.314927 z m 18.747671,-0.362965 c -2.50379,-1.796753 -3.38693,-2.888108 -3.60482,-4.454686 -0.1598,-1.148918 0.0133,-1.127667 1.27054,0.156027 0.53537,0.5466 1.23782,1.366429 1.56102,1.821842 0.53283,0.750805 1.80142,3.035013 1.72621,3.108185 -0.0171,0.01662 -0.44591,-0.267506 -0.95295,-0.631368 z m -9.75372,-11.920739 c -0.54115,-0.173811 -1.19838,-0.768486 -1.45252,-1.31425 -0.39071,-0.839048 -0.23215,-1.96214 0.37761,-2.674503 0.88762,-1.036988 2.47826,-1.148834 3.50354,-0.246353 1.70904,1.504356 0.79732,4.194045 -1.46802,4.330897 -0.34139,0.0206 -0.71381,-0.0165 -0.96061,-0.09579 z"
         id="path324-7-9"
         sodipodi:nodetypes="ssssssssssssccaassssssscssccsssssccsccsssssscccssccssscssccsssccsssccssscccsssssssssssscccsccccsssccsssscccssssssssscccssssssscccssssccssssacssscccsssssssssscscccssccssssccsssccccsssscccsccssscssccccssccssssssssssaaccsssssssssssscsscssssccccsssssssccccsscscccccsccsssscssccssscsscccsccacscssccccscsssssssssssscscssssssssccssssssssacscacssssccscccsccscsssssccsccscsscccccssssccccsssccsssscsssssssssssssssscccssssscsssssscssssc" />
    </g>
    <text
       xml:space="preserve"
       style="font-size:31.9415px;line-height:1.1;font-family:Arial;-inkscape-font-specification:Arial;text-align:start;text-anchor:start;fill:#001452;fill-opacity:1;stroke-width:0.896938;stroke-linecap:round;stroke-dashoffset:264.619;-inkscape-stroke:none;stop-color:#000000"
       x="110.94157"
       y="53.263107"
       id="text333"
       transform="scale(0.97648935,1.0240767)"><tspan
         sodipodi:role="line"
         id="tspan331"
         style="font-weight:bold;font-size:31.9415px;text-align:start;text-anchor:start;fill:#001452;fill-opacity:1;stroke-width:0.896938"
         x="110.94157"
         y="53.263107">Dottori </tspan><tspan
         sodipodi:role="line"
         style="font-weight:bold;font-size:31.9415px;text-align:start;text-anchor:start;fill:#001452;fill-opacity:1;stroke-width:0.896938"
         x="110.94157"
         y="88.398758"
         id="tspan1045">Lab</tspan></text>
  </g>
</svg>
