<?xml version="1.0" encoding="UTF-8" standalone="no"?>
<!-- Created with Inkscape (http://www.inkscape.org/) -->

<svg
   width="157.04335mm"
   height="59.779938mm"
   viewBox="0 0 157.04335 59.779938"
   version="1.1"
   id="svg5"
   xml:space="preserve"
   inkscape:version="1.2.2 (732a01da63, 2022-12-09)"
   sodipodi:docname="dottori_lab.svg"
   xmlns:inkscape="http://www.inkscape.org/namespaces/inkscape"
   xmlns:sodipodi="http://sodipodi.sourceforge.net/DTD/sodipodi-0.dtd"
   xmlns:xlink="http://www.w3.org/1999/xlink"
   xmlns="http://www.w3.org/2000/svg"
   xmlns:svg="http://www.w3.org/2000/svg"><sodipodi:namedview
     id="namedview7"
     pagecolor="#505050"
     bordercolor="#eeeeee"
     borderopacity="1"
     inkscape:showpageshadow="0"
     inkscape:pageopacity="0"
     inkscape:pagecheckerboard="0"
     inkscape:deskcolor="#505050"
     inkscape:document-units="mm"
     showgrid="false"
     showguides="true"
     inkscape:zoom="1.3986392"
     inkscape:cx="219.85656"
     inkscape:cy="252.74567"
     inkscape:window-width="1920"
     inkscape:window-height="986"
     inkscape:window-x="-11"
     inkscape:window-y="-11"
     inkscape:window-maximized="1"
     inkscape:current-layer="layer1"><sodipodi:guide
       position="-78.3172,248.57357"
       orientation="0,-1"
       id="guide10119"
       inkscape:locked="false" /><sodipodi:guide
       position="-18.349685,70.562747"
       orientation="0,-1"
       id="guide16112"
       inkscape:locked="false" /></sodipodi:namedview><defs
     id="defs2"><inkscape:path-effect
       effect="bspline"
       id="path-effect11416"
       is_visible="true"
       lpeversion="1"
       weight="33.333333"
       steps="2"
       helper_size="0"
       apply_no_weight="true"
       apply_with_weight="true"
       only_selected="false" /><inkscape:path-effect
       effect="bspline"
       id="path-effect10452"
       is_visible="true"
       lpeversion="1"
       weight="33.333333"
       steps="2"
       helper_size="0"
       apply_no_weight="true"
       apply_with_weight="true"
       only_selected="false" /><linearGradient
       inkscape:collect="always"
       id="linearGradient6978"><stop
         style="stop-color:#00359c;stop-opacity:1;"
         offset="0"
         id="stop6974" /><stop
         style="stop-color:#080808;stop-opacity:1;"
         offset="0.44693878"
         id="stop7051" /></linearGradient><linearGradient
       inkscape:collect="always"
       id="linearGradient6970"><stop
         style="stop-color:#00359c;stop-opacity:1;"
         offset="0.61836737"
         id="stop6966" /><stop
         style="stop-color:#00359c;stop-opacity:0;"
         offset="1"
         id="stop6968" /></linearGradient><radialGradient
       inkscape:collect="always"
       xlink:href="#linearGradient6970"
       id="radialGradient6972"
       cx="27.956841"
       cy="-263.78415"
       fx="27.956841"
       fy="-263.78415"
       r="71.914536"
       gradientUnits="userSpaceOnUse"
       gradientTransform="matrix(-0.71231477,0.02668398,-0.01491936,-0.39821614,53.595527,-75.82818)" /><radialGradient
       inkscape:collect="always"
       xlink:href="#linearGradient6978"
       id="radialGradient6980"
       cx="8.4271812"
       cy="-261.48892"
       fx="8.4271812"
       fy="-261.48892"
       r="71.135887"
       gradientTransform="matrix(0.1888326,-0.35293713,0.34834821,0.18637739,119.33234,82.576989)"
       gradientUnits="userSpaceOnUse" /></defs><g
     inkscape:label="Layer 1"
     inkscape:groupmode="layer"
     id="layer1"
     transform="translate(-3.2186508e-6,-1.0848045e-5)"><circle
       style="fill:url(#radialGradient6972);fill-opacity:1;stroke:none;stroke-width:2.4647;stroke-linecap:round;stroke-dasharray:none;stroke-opacity:1"
       id="path2923-7"
       cx="29.889973"
       cy="29.88998"
       r="28.657619" /><rect
       style="fill:#ffffff;fill-opacity:1;stroke:none;stroke-width:1.81684;stroke-linecap:round;stroke-dasharray:none;stroke-opacity:1"
       id="rect4549"
       width="6.2366457"
       height="7.1961303"
       x="26.956013"
       y="51.975758" /><rect
       style="fill:#ffffff;fill-opacity:1;stroke:none;stroke-width:0.760768;stroke-linecap:round;stroke-dasharray:none;stroke-opacity:1"
       id="rect3329-2-3"
       width="3.1755588"
       height="3.1567683"
       x="29.159788"
       y="31.307533"
       transform="rotate(26.296456)" /><rect
       style="fill:#ffffff;fill-opacity:1;stroke:none;stroke-width:1.52605;stroke-linecap:round;stroke-dasharray:none;stroke-opacity:1"
       id="rect3329-2-8"
       width="6.3699636"
       height="6.3322711"
       x="31.071779"
       y="22.686069"
       transform="rotate(36.456957)" /><rect
       style="fill:#ffffff;fill-opacity:1;stroke:none;stroke-width:2.31526;stroke-linecap:round;stroke-dasharray:none;stroke-opacity:1"
       id="rect3329"
       width="14.662224"
       height="6.3322711"
       x="4.7279353"
       y="34.43985" /><rect
       style="fill:#ffffff;fill-opacity:1;stroke:none;stroke-width:1.52605;stroke-linecap:round;stroke-dasharray:none;stroke-opacity:1"
       id="rect3329-2"
       width="6.3699636"
       height="6.3322711"
       x="6.9706144"
       y="33.309086" /><rect
       style="fill:#ffffff;fill-opacity:1;stroke:none;stroke-width:1.42352;stroke-linecap:round;stroke-dasharray:none;stroke-opacity:1"
       id="rect3329-2-7"
       width="5.0884328"
       height="6.8976526"
       x="8.9061413"
       y="40.672245" /><rect
       style="fill:#ffffff;fill-opacity:1;stroke:none;stroke-width:2.70345;stroke-linecap:round;stroke-dasharray:none;stroke-opacity:1"
       id="rect3327"
       width="18.935579"
       height="3.2996652"
       x="-11.102852"
       y="38.020638"
       transform="matrix(0.96794498,-0.25116232,0.4227361,0.90625283,0,0)" /><rect
       style="fill:#ffffff;fill-opacity:1;stroke:none;stroke-width:2.31526;stroke-linecap:round;stroke-dasharray:none;stroke-opacity:1"
       id="rect3325"
       width="3.0530596"
       height="13.795305"
       x="28.473953"
       y="44.805172" /><rect
       style="fill:#ffffff;fill-opacity:1;stroke:none;stroke-width:3.98109;stroke-linecap:round;stroke-dasharray:none;stroke-opacity:1"
       id="rect3187-9-4"
       width="5.3145852"
       height="10.96331"
       x="8.6906528"
       y="12.621083" /><rect
       style="fill:#ffffff;fill-opacity:1;stroke:none;stroke-width:3.83819;stroke-linecap:round;stroke-dasharray:none;stroke-opacity:1"
       id="rect3187-9-4-7"
       width="5.3145852"
       height="10.190393"
       x="12.262064"
       y="14.033658" /><rect
       style="fill:#ffffff;fill-opacity:1;stroke:none;stroke-width:2.66511;stroke-linecap:round;stroke-dasharray:none;stroke-opacity:1"
       id="rect3187-9-4-7-6"
       width="5.3145852"
       height="4.9132309"
       x="15.033908"
       y="19.937151" /><rect
       style="fill:#ffffff;fill-opacity:1;stroke:none;stroke-width:2.66511;stroke-linecap:round;stroke-dasharray:none;stroke-opacity:1"
       id="rect3187-9-4-7-6-3"
       width="5.3145852"
       height="4.9132309"
       x="18.232187"
       y="22.016045" /><rect
       style="fill:#ffffff;fill-opacity:1;stroke:none;stroke-width:2.79141;stroke-linecap:round;stroke-dasharray:none;stroke-opacity:1"
       id="rect3187"
       width="5.3145852"
       height="5.3899689"
       x="5.5618443"
       y="17.882494" /><rect
       style="fill:#ffffff;fill-opacity:1;stroke:none;stroke-width:2.79141;stroke-linecap:round;stroke-dasharray:none;stroke-opacity:1"
       id="rect3187-4"
       width="5.3145852"
       height="5.3899689"
       x="22.763599"
       y="24.583355" /><rect
       style="fill:#ffffff;fill-opacity:1;stroke:none;stroke-width:2.99846;stroke-linecap:round;stroke-dasharray:none;stroke-opacity:1"
       id="rect3187-9"
       width="5.3145852"
       height="6.2191949"
       x="23.442057"
       y="29.257177" /><rect
       style="fill:#ffffff;fill-opacity:1;stroke:none;stroke-width:2.99846;stroke-linecap:round;stroke-dasharray:none;stroke-opacity:1"
       id="rect3187-9-2"
       width="5.3145852"
       height="6.2191949"
       x="21.13052"
       y="37.255138"
       transform="rotate(-8.1431252)" /><rect
       style="fill:#ffffff;fill-opacity:1;stroke:none;stroke-width:5.16909;stroke-linecap:round;stroke-dasharray:none;stroke-opacity:1"
       id="rect2977"
       width="4.9753561"
       height="24.424475"
       x="27.418573"
       y="21.58683" /><circle
       style="fill:none;fill-opacity:1;stroke:#ffffff;stroke-width:2.4647;stroke-linecap:round;stroke-dasharray:none;stroke-opacity:1"
       id="path2923"
       cx="29.889973"
       cy="29.88998"
       r="28.657619" /><rect
       style="fill:#ffffff;fill-opacity:1;stroke:none;stroke-width:19.1032;stroke-linecap:round;stroke-dasharray:none;stroke-opacity:1"
       id="rect2869"
       width="1.8092204"
       height="53.334312"
       x="29.077023"
       y="2.3638608" /><rect
       style="fill:#ffffff;fill-opacity:1;stroke:none;stroke-width:3.42556;stroke-linecap:round;stroke-dasharray:none;stroke-opacity:1"
       id="rect3401"
       width="5.9171987"
       height="10.822931"
       x="31.053411"
       y="24.854694" /><rect
       style="fill:#ffffff;fill-opacity:1;stroke:none;stroke-width:3.42556;stroke-linecap:round;stroke-dasharray:none;stroke-opacity:1"
       id="rect3401-2"
       width="5.9171987"
       height="10.822931"
       x="40.175983"
       y="11.66695"
       transform="rotate(24.946353)" /><rect
       style="fill:#ffffff;fill-opacity:1;stroke:none;stroke-width:3.75091;stroke-linecap:round;stroke-dasharray:none;stroke-opacity:1"
       id="rect3401-8"
       width="5.1711569"
       height="14.848491"
       x="20.404507"
       y="-69.822235"
       transform="matrix(-0.71645432,0.69763401,-0.94335601,-0.33178223,0,0)" /><rect
       style="fill:#ffffff;fill-opacity:1;stroke:none;stroke-width:3.22362;stroke-linecap:round;stroke-dasharray:none;stroke-opacity:1"
       id="rect3401-27"
       width="6.0015368"
       height="9.4498701"
       x="8.2458544"
       y="54.796474"
       transform="matrix(0.85793353,-0.5137607,0.69533266,0.71868803,0,0)" /><rect
       style="fill:#ffffff;fill-opacity:1;stroke:none;stroke-width:1.07909;stroke-linecap:round;stroke-dasharray:none;stroke-opacity:1"
       id="rect3460"
       width="1.9976809"
       height="2.2992175"
       x="50.900749"
       y="33.422157" /><rect
       style="fill:#ffffff;fill-opacity:1;stroke:none;stroke-width:1.07909;stroke-linecap:round;stroke-dasharray:none;stroke-opacity:1"
       id="rect3460-1"
       width="1.9976809"
       height="2.2992175"
       x="53.181118"
       y="35.024071" /><rect
       style="fill:#ffffff;fill-opacity:1;stroke:none;stroke-width:2.31526;stroke-linecap:round;stroke-dasharray:none;stroke-opacity:1"
       id="rect3506"
       width="9.0837946"
       height="3.1284437"
       x="42.344643"
       y="38.81213" /><rect
       style="fill:#ffffff;fill-opacity:1;stroke:none;stroke-width:2.66282;stroke-linecap:round;stroke-dasharray:none;stroke-opacity:1"
       id="rect3508"
       width="3.9181283"
       height="8.2994766"
       x="21.597359"
       y="51.11829"
       transform="matrix(0.96775922,-0.25187714,0.44771803,0.89417479,0,0)" /><rect
       style="fill:#ffffff;fill-opacity:1;stroke:none;stroke-width:2.31526;stroke-linecap:round;stroke-dasharray:none;stroke-opacity:1"
       id="rect3510"
       width="19.136377"
       height="2.3454051"
       x="13.632717"
       y="41.020363"
       transform="rotate(-34.620316)" /><rect
       style="fill:#ffffff;fill-opacity:1;stroke:none;stroke-width:2.1991;stroke-linecap:round;stroke-dasharray:none;stroke-opacity:1"
       id="rect3525"
       width="8.8485737"
       height="8.79527"
       x="41.225212"
       y="15.677379" /><rect
       style="fill:#ffffff;fill-opacity:1;stroke:none;stroke-width:2.32334;stroke-linecap:round;stroke-dasharray:none;stroke-opacity:1"
       id="rect3540"
       width="9.2217073"
       height="3.8379359"
       x="19.306568"
       y="40.643242"
       transform="rotate(-42.628515)" /><rect
       style="fill:#ffffff;fill-opacity:1;stroke:none;stroke-width:2.31526;stroke-linecap:round;stroke-dasharray:none;stroke-opacity:1"
       id="rect3555"
       width="5.9701228"
       height="5.5703378"
       x="48.981041"
       y="17.942825" /><rect
       style="fill:#ffffff;fill-opacity:1;stroke:none;stroke-width:2.31526;stroke-linecap:round;stroke-dasharray:none;stroke-opacity:1"
       id="rect3557"
       width="1.4392259"
       height="3.4648032"
       x="30.457668"
       y="19.541964" /><rect
       style="fill:#00359c;fill-opacity:1;stroke:none;stroke-width:2.31526;stroke-linecap:round;stroke-dasharray:none;stroke-opacity:1"
       id="rect3559"
       width="3.4114985"
       height="2.2654483"
       x="21.902269"
       y="20.581411" /><rect
       style="fill:#ffffff;fill-opacity:1;stroke:none;stroke-width:2.31526;stroke-linecap:round;stroke-dasharray:none;stroke-opacity:1"
       id="rect4585"
       width="5.7169251"
       height="5.1039219"
       x="27.262514"
       y="53.068501" /><path
       style="fill:url(#radialGradient6980);fill-opacity:1;stroke-width:0.0877993"
       d="M 26.656858,57.825396 C 20.85317,57.079556 14.711015,54.313774 10.836618,50.701616 8.7027504,48.712182 7.2554664,46.968617 5.7445069,44.567088 2.46773,39.358947 1.0265909,33.091612 1.7078509,27.012185 2.3800411,21.013703 4.8627479,15.676968 9.2211611,10.861835 13.401152,6.2438215 20.606637,2.6619406 27.255128,1.8970643 c 1.554969,-0.1788886 4.964561,-0.1345959 6.392119,0.083042 3.665828,0.558874 7.504739,1.9582627 10.687694,3.8959512 3.956877,2.4088257 7.724034,6.1551705 9.964663,9.9095945 2.209873,3.702892 3.319679,7.025142 3.823588,11.446031 0.193805,1.700285 0.132946,4.968175 -0.123454,6.628861 -0.874506,5.664168 -3.252544,10.725232 -6.938619,14.767129 -3.627577,3.977746 -8.39401,6.946593 -13.313947,8.292783 -1.527314,0.534976 -9.223775,1.439465 -5.036434,0.915802 0,0 -0.634,-1.556486 -0.810823,-2.373697 -0.680963,-3.147166 -1.368772,-6.423815 -0.935719,-9.614557 0.518768,-3.822285 2.174435,-10.802166 4.150204,-10.802166 1.316159,0 3.321683,0.604048 4.735402,1.426256 1.546469,0.899424 2.50081,1.826771 3.650398,3.547164 0.698172,1.044843 1.726071,2.898166 1.649512,2.974115 -0.01506,0.01494 -0.659534,-0.144594 -1.432165,-0.354509 -3.201277,-0.869745 -4.814224,-1.72239 -7.287363,-3.852308 -1.427479,-1.229375 -2.507409,-2.072524 -2.654546,-2.072524 -0.05583,0 -0.02124,0.218336 0.08691,0.548744 0.249773,0.763008 0.311819,2.6997 0.121689,3.798443 -0.07531,0.435221 -0.394579,1.556604 -0.709474,2.491965 -0.314899,0.935356 -0.614093,1.929774 -0.664874,2.209817 -0.945371,3.125512 0.355626,2.647058 0.774628,0.199124 0.06131,-0.233335 0.382253,-1.115665 0.713199,-1.960733 0.330947,-0.84507 0.619155,-1.595756 0.640462,-1.668191 0.131376,-0.446581 1.217647,2.402598 1.390889,3.648154 0.154891,1.113636 -0.05283,2.551241 -0.669441,4.633089 -0.171592,0.579344 -0.408517,1.452026 -0.526504,1.93929 -0.117986,0.487264 -0.25636,0.899887 -0.307499,0.916934 -0.765677,1.948843 0.712395,1.251938 1.017383,-0.58731 0.129969,-0.587255 0.770388,-2.528961 0.865473,-2.624046 0.01897,-0.01897 0.218961,0.261453 0.444414,0.623176 1.759521,2.923188 1.849194,1.387318 0.866608,-0.142486 -0.331708,-0.521858 -0.732921,-1.585192 -0.74578,-1.976518 -0.0059,-0.180519 0.01901,-0.822088 0.05541,-1.425714 0.05683,-0.942167 0.04048,-1.221189 -0.115488,-1.971508 -0.09993,-0.480709 -0.173305,-0.881405 -0.163068,-0.890439 0.06605,-0.05828 3.30466,2.37275 3.461205,2.598119 0.106705,0.153613 0.354979,0.799323 0.551721,1.434907 0.196741,0.635585 0.473918,1.46966 0.615958,1.853498 0.253471,0.759485 0.0079,2.947361 1.235149,1.898935 0.49541,-0.695146 -0.538403,-2.177343 -0.706254,-2.755018 -0.226516,-0.782215 -0.442856,-1.516874 -0.480761,-1.632573 -0.06068,-0.185243 -0.0075,-0.163463 0.445921,0.182415 0.283155,0.216029 0.771643,0.547752 1.08553,0.737161 2.521843,2.117263 3.28428,0.394706 0.614802,-0.577408 -0.492982,-0.251502 -1.676048,-1.158653 -2.041002,-1.565007 -0.183152,-0.203926 -0.672214,-1.056216 -1.104474,-1.924777 -0.426673,-0.85734 -0.975071,-1.879838 -1.218659,-2.27223 l -0.442884,-0.71343 0.888864,0.414762 c 1.064003,0.496482 2.027115,0.816311 4.137448,1.373953 1.833043,0.484375 1.860934,0.503555 2.42402,1.666886 0.849198,2.034738 1.764175,2.31765 0.927825,0.194534 -0.08057,-0.210956 -0.462713,-1.011115 -0.849226,-1.778135 -0.386509,-0.767016 -0.702743,-1.428554 -0.702743,-1.470086 0,-0.04153 0.254603,0.124574 0.565772,0.369115 0.311177,0.244545 0.972489,0.690863 1.46958,0.991819 3.030028,1.097696 2.360425,0.462618 0.708218,-0.528174 -1.568713,-0.943286 -3.330107,-2.626288 -4.523247,-4.321951 -0.421819,-0.599476 -0.75597,-1.100927 -0.742568,-1.114337 0.02666,-0.02666 0.569924,0.09904 3.091409,0.715168 1.615457,0.394746 3.465966,1.001671 4.605364,1.510454 3.029563,2.044892 3.611968,0.536949 0.471046,-0.666193 -0.703691,-0.358657 -2.130795,-0.933169 -3.436454,-1.383417 -0.747586,-0.257795 -1.303527,-0.487659 -1.235432,-0.510808 0.06809,-0.02315 0.795477,-0.240614 1.616402,-0.483263 1.698264,-0.501973 3.290202,-0.729621 4.583559,-0.655772 2.611082,0.917907 2.338742,-0.592466 -0.836243,-0.691462 l -1.232044,-0.108179 0.78178,-0.614596 c 0.842487,-0.662318 0.958768,-0.887357 0.566872,-1.097093 -0.27756,-0.148543 -0.37518,-0.0994 -1.405542,0.707613 -1.425856,1.116775 -3.017161,1.729614 -5.048472,1.944251 -0.770419,0.08141 -1.058946,0.07416 -1.75599,-0.04412 -1.762912,-0.299143 -3.31245,-0.88513 -5.69802,-2.154817 -1.562317,-0.831525 -2.392192,-1.549486 -2.838204,-2.455462 -0.272229,-0.55298 -0.287627,-0.636058 -0.287627,-1.551897 0,-0.889234 0.02056,-1.009588 0.253902,-1.485332 0.555391,-1.132413 2.197372,-2.482659 4.30411,-3.539385 1.970146,-0.988209 2.727909,-1.21324 5.977931,-1.77525 1.110663,-0.192059 2.423112,-0.469607 2.916557,-0.616767 1.055395,-0.31476 1.383449,-0.326448 2.589747,-0.09224 0.85853,0.161936 3.105467,1.015629 3.25878,0.577866 0.275293,-1.030573 -2.509493,-1.167982 -2.935118,-1.275098 -0.586335,-0.147563 -1.081047,-0.268299 -1.099374,-0.268299 -0.01833,0 -0.03331,-0.05026 -0.03331,-0.111686 0.198008,-0.540551 1.914448,-1.639168 1.931583,-2.072257 0,-0.239292 -0.370421,-0.625642 -0.599855,-0.625642 -0.924414,0.768746 -1.67084,2.037859 -2.868223,2.679596 -0.654039,0.321753 -1.661196,0.540009 -3.424184,0.742034 -0.869215,0.0996 -1.733855,0.206222 -1.921418,0.236926 -0.213797,0.03499 -0.328444,0.02299 -0.307304,-0.03216 0.0603,-0.157314 2.349788,-2.126687 3.259123,-2.803436 2.079669,-0.950539 5.070067,-4.052014 1.289349,-1.878639 -1.502074,0.849792 -2.628521,1.648556 -3.863805,2.739832 -0.318043,0.280971 -0.599584,0.510851 -0.62565,0.510851 -0.02606,0 0.0436,-0.250677 0.154816,-0.55706 0.111212,-0.306384 0.367205,-1.205234 0.568876,-1.997439 0.563373,-2.213073 0.652341,-2.331323 2.604108,-3.460982 0.936648,-0.642717 3.02162,-0.517147 2.349606,-1.661188 -0.795075,-0.955584 -1.489043,0.359283 -2.102403,0.646742 -1.02666,0.451185 -2.339874,1.26573 -2.739402,1.699165 -0.379889,0.412136 -0.717192,1.280151 -1.032446,2.656941 -0.409558,1.788615 -0.954006,2.87821 -1.9336,3.86969 -0.831819,0.84191 -1.554913,1.32438 -3.338408,2.227455 -1.836451,0.929897 -2.845692,1.261262 -3.863179,1.268407 -0.716136,0.005 -0.833963,-0.01869 -1.257185,-0.253148 -0.256847,-0.142279 -0.588626,-0.397224 -0.737285,-0.566537 -0.382014,-0.43509 -0.748849,-1.271878 -0.850656,-1.940454 -0.09626,-0.632154 -0.224206,-3.602997 -0.35922,-8.340958 -0.04885,-1.714284 -0.131185,-4.47265 -0.182969,-6.1296942 -0.07091,-1.2154272 0.660092,-5.0851415 -0.800801,-4.5745372 -0.605865,2.2878026 -0.09284,3.6656128 -0.157661,5.4362599 -0.04889,1.3279665 -0.127694,3.4614955 -0.175127,4.7411765 -0.04743,1.279677 -0.128542,3.47247 -0.180247,4.872871 -0.154302,4.179529 -0.230307,4.699804 -0.817629,5.596973 -0.579066,0.884565 -1.609902,1.310182 -2.726578,1.125766 -0.93138,-0.153811 -1.757074,-0.462422 -3.277685,-1.225059 -1.772911,-0.889179 -2.901693,-1.633461 -3.637786,-2.398644 -0.928674,-0.965372 -1.364485,-1.940247 -1.954529,-4.372121 -0.12302,-0.507042 -0.344679,-1.16821 -0.492577,-1.469265 -0.357088,-0.890925 -4.974894,-3.942779 -5.401176,-2.519644 0.09114,0.914065 1.818717,0.916126 2.412161,1.24971 2.178647,1.226326 2.162603,1.206656 2.683927,3.290342 0.208082,0.831679 0.481829,1.784904 0.608323,2.118282 0.126499,0.333378 0.219604,0.61521 0.206904,0.626292 -0.01271,0.01108 -0.536722,-0.393555 -1.164488,-0.899202 -1.52523,-1.228525 -2.26752,-1.744689 -3.44613,-2.396349 -4.3416923,-2.343595 -3.1246192,-0.751666 -0.401651,0.752547 0.473623,0.286207 1.166053,0.746203 1.538734,1.022208 0.756114,0.559974 3.688431,2.979061 3.650383,3.011467 -0.01339,0.0114 -0.439194,-0.03068 -0.94624,-0.09352 -0.507042,-0.06284 -1.514542,-0.178614 -2.238887,-0.257277 C 12.178771,21.835684 11.762802,21.788889 10.892164,21.31974 9.782892,20.722001 8.9294624,18.823397 8.1363607,18.732161 7.9378741,18.712276 7.83193,18.757187 7.7281658,18.905347 c -0.2796681,0.399281 -0.191764,0.56258 0.8297274,1.541417 0.5334222,0.511146 0.9383972,0.960071 0.8999424,0.997613 -0.038455,0.03754 -0.5410732,0.186931 -1.1169391,0.331975 -0.926793,0.334597 -2.3789425,-0.307116 -2.4210556,0.610543 0.27124,1.220141 1.81704,0.27972 2.7907479,0.103366 1.1188518,-0.217232 1.5844742,-0.218914 2.2577242,-0.0082 0.760154,0.237953 2.058715,0.492165 3.840524,0.751833 3.117316,0.454297 4.553199,1.000041 7.178316,2.7283 2.793529,1.839132 3.599167,3.68323 2.527135,5.784585 -0.266299,0.521989 -1.078712,1.327826 -1.777175,1.76278 -1.003005,0.624606 -3.434314,1.765084 -4.569237,2.143336 -1.824141,0.607957 -2.957805,0.731913 -4.521677,0.494406 -1.936776,-0.294142 -3.144688,-0.8159 -4.6879532,-2.024971 -0.8786388,-0.688365 -0.9711336,-0.73962 -1.1365531,-0.629782 -0.501682,0.333106 -0.4336269,0.463549 0.6572347,1.259771 l 0.7028305,0.512996 -0.3359158,0.02116 c -0.1847545,0.01164 -0.7618716,0.0624 -1.2824861,0.112818 -2.7897516,-0.327452 -2.7142805,1.206409 0.5658916,0.761728 1.177885,-0.0068 1.4619047,0.02116 2.2683684,0.223122 1.625614,0.407131 3.032997,0.840801 2.897385,0.892797 -0.07243,0.02777 -0.842874,0.284283 -1.712088,0.57002 -0.869219,0.285737 -2.0235128,0.716427 -2.5651001,0.957083 -4.130438,1.51384 -1.9739117,1.718464 -0.045962,0.938528 1.4694051,-0.590837 2.6100191,-0.945689 4.6412781,-1.443928 1.201288,-0.29466 2.416364,-0.595516 2.700168,-0.668568 0.283806,-0.07305 0.532072,-0.116759 0.551702,-0.09713 0.08356,0.08356 -1.541021,2.186374 -2.238759,2.897788 -0.746394,0.761027 -2.251468,1.961547 -3.143847,2.507681 -2.8407156,2.81757 -1.084411,1.665567 0.86888,0.426944 0.591487,-0.373944 1.263099,-0.822216 1.492477,-0.996159 0.229374,-0.17394 0.417046,-0.27878 0.417046,-0.232977 0,0.0458 -0.312469,0.700197 -0.694379,1.454214 -0.38191,0.754017 -0.760429,1.569789 -0.841152,1.812828 -0.204305,0.594563 -0.984197,1.173019 -0.428116,1.664707 0.323937,0.25481 0.613707,0.22843 0.926486,-0.08435 0.425721,-0.681602 0.09699,-1.123956 0.453572,-1.851565 0.554427,-1.119753 0.490771,-1.077907 2.383481,-1.566813 2.017524,-0.521144 3.234238,-0.937269 4.288139,-1.466571 0.78567,-0.394586 0.790807,-0.395794 0.627694,-0.147523 -0.418109,0.636401 -0.958541,1.608424 -1.607925,2.892009 -0.38874,0.768399 -0.850792,1.565183 -1.026784,1.770628 -1.380177,1.727884 -4.758806,2.075412 -3.642313,3.371152 1.335861,0.28302 2.071627,-1.083549 3.143337,-1.824089 0.304124,-0.211259 0.565533,-0.38411 0.580915,-0.38411 0.01538,0 -0.176828,0.715431 -0.427123,1.58985 -1.339663,2.669788 -0.247308,4.05417 0.594256,0.806084 0.169452,-0.520981 0.450081,-1.408725 0.623618,-1.972764 0.241986,-0.786498 0.379702,-1.089694 0.590873,-1.300864 0.224413,-0.224413 3.125635,-2.347553 3.336511,-2.441686 0.03316,-0.01478 0.0066,0.151365 -0.05896,0.369242 -0.263693,0.87618 -0.332764,1.771615 -0.223022,2.891157 0.1027,1.047644 0.100341,1.082497 -0.11976,1.771073 -0.123486,0.386318 -0.344224,0.909821 -0.490528,1.163344 -2.709252,2.347218 -0.948547,3.561319 0.794369,0.246641 0.332301,-0.526158 0.390904,-0.580429 0.486144,-0.450184 0.164414,3.870571 2.708427,5.821099 1.128803,0.640593 -0.727506,-2.559692 -0.859647,-3.312382 -0.803499,-4.576845 0.03375,-0.760528 0.107566,-1.263469 0.259772,-1.77034 0.247338,-0.823694 0.955436,-2.412671 1.061368,-2.381716 0.335282,2.181022 4.051109,10.778112 2.211802,3.484824 -0.03507,-0.217304 -0.31472,-1.145783 -0.62143,-2.063287 -0.97527,-2.917445 -1.148676,-4.900686 -0.576647,-6.595101 0.101971,-0.302047 0.124892,-0.471591 0.06348,-0.469523 -0.181347,0.0061 -1.261358,0.831648 -2.465316,1.884454 -0.662674,0.579476 -1.518292,1.27858 -1.901373,1.553566 -0.836195,0.600246 -2.645425,1.533132 -3.675289,1.895074 -0.984945,0.346157 -3.34549,1.005392 -3.40106,0.949822 -0.05282,-0.05282 0.527206,-1.122813 1.192578,-2.199975 1.563872,-2.531721 3.016237,-3.859158 5.334971,-4.876075 1.707202,-0.748721 3.66656,-1.058842 4.737262,-0.749797 1.446272,0.417452 2.42444,7.047788 2.748049,10.723614 0.283406,3.219171 -0.149671,6.488121 -0.728771,9.66743 -0.145978,0.801438 -0.687347,2.345218 -0.687347,2.345218 1.733085,0.183268 -0.31337,-0.02997 -0.750586,-0.08521 z M 16.719186,45.669582 c 0.229852,-0.229853 0.223257,-0.596453 -0.0153,-0.850386 -0.246852,-0.262768 -0.552283,-0.258201 -0.822781,0.01231 -0.402278,0.402273 -0.161562,1.013685 0.399089,1.013685 0.146331,0 0.341443,-0.07805 0.438998,-0.175602 z m 27.390035,-0.01654 c 0.2393,-0.256862 0.225875,-0.559169 -0.0365,-0.82153 -0.411264,-0.411264 -1.013685,-0.148926 -1.013685,0.441429 0,0.530844 0.680327,0.777082 1.050171,0.380101 z M 15.564516,33.922962 c 0.261613,-0.275217 1.386506,-0.951743 2.125552,-1.278334 0.8994,-0.397452 1.993689,-0.472851 3.901992,-0.268857 l 0.438999,0.04693 0.426342,-0.581457 c 0.234491,-0.319805 0.412284,-0.591714 0.395101,-0.604247 -0.01718,-0.01255 -0.440111,-0.07188 -0.939832,-0.13189 -2.304464,-0.276703 -3.512124,-1.006508 -4.738829,-2.863732 -0.318952,-0.482897 -0.729526,-1.083733 -0.912384,-1.335191 -0.4365,-0.556411 -0.270263,-1.501013 -0.975656,-1.518292 -0.419321,0 -0.694191,0.315373 -0.657749,0.754671 0.136911,0.585924 0.679809,0.764541 1.009513,1.270882 0.263078,0.411713 1.169421,2.129353 1.169421,2.216205 0,0.07018 -3.443324,-0.916054 -3.893696,-1.11523 -1.7324,-0.766151 -3.2210793,-2.268922 -4.2276112,-4.267632 -0.3909201,-0.776257 -0.5094327,-0.870621 -0.8108109,-0.64561 -0.1275225,0.09521 -0.2447121,0.21166 -0.2604168,0.258783 -0.015701,0.04712 0.2666892,0.591606 0.6275547,1.209967 0.4088086,0.700524 0.5995007,1.101621 0.505918,1.064135 -0.082604,-0.03308 -0.6045536,-0.161737 -1.159889,-0.285889 -0.9584534,-0.10692 -1.6204342,-1.194801 -2.28954,-0.554833 -0.3274597,0.32746 -0.3432162,0.718356 -0.041137,1.020435 0.8635597,0.335765 1.3130706,0.01949 2.0969671,0.239632 1.4177833,0.40048 1.7967924,0.580942 2.7561551,1.312309 0.505439,0.385321 1.23202,0.890717 1.614628,1.123104 l 0.695649,0.422517 -0.638421,0.04834 c -0.351131,0.02658 -1.392168,0.06842 -2.3134185,0.09297 -5.6033412,0.148767 -4.0350302,0.974119 -0.5371441,0.927339 0.685492,-0.0045 1.3056146,-0.0056 1.3780496,-0.0024 0.21657,0.0096 -1.0038822,0.686082 -2.4939925,1.382449 -0.7868095,0.677339 -2.5611028,0.434663 -2.8162834,0.899962 -0.1882612,0.364054 -0.1667106,0.564501 0.094009,0.874347 0.1824711,0.216854 0.2950301,0.270132 0.5706934,0.270132 0.7736551,-0.363499 1.1253792,-0.734451 1.9024256,-1.036725 1.272185,-0.491345 1.9358872,-0.803144 3.4528289,-1.6221 1.437668,-0.776158 2.754425,-1.020268 4.129258,-0.765522 0.609575,0.112953 1.372917,0.507516 1.547143,0.799701 0.22409,0.375817 0.08721,0.647013 -0.570223,1.12977 -0.532127,0.390745 -0.630336,0.430897 -1.015028,0.414993 -0.372478,-0.01542 -0.453504,0.01447 -0.645985,0.238165 -0.402971,0.468304 -0.10286,1.10512 0.52081,1.10512 0.264748,0 0.401061,-0.05765 0.579037,-0.244883 z m 29.925304,0.05398 c 0.1993,-0.187233 0.260593,-0.523189 0.148671,-0.81486 -0.08772,-0.228585 -0.530433,-0.412542 -0.848999,-0.35278 -0.243783,0.04573 -0.364352,-0.0067 -0.850445,-0.369628 -0.984136,-0.734834 -1.025723,-1.133636 -0.161865,-1.552144 1.010003,-0.489309 2.301296,-0.629488 3.368045,-0.365628 0.287809,0.07119 1.255579,0.502917 2.150592,0.959394 1.114158,0.443629 5.483506,3.049846 5.616161,1.692685 -0.235555,-0.984032 -1.65818,-0.748637 -2.343983,-1.060368 -0.56996,-0.259485 -1.53017,-0.732423 -2.133788,-1.050972 l -1.0975,-0.57919 1.416644,-0.0016 c 0,0 4.44872,0.424617 4.241793,-1.014382 -0.125116,-0.870071 -0.895364,0.102895 -2.633645,0.134189 -1.003149,-0.02997 -4.115112,-0.13279 -4.374624,-0.163343 l -0.471843,-0.05555 0.656944,-0.415882 c 0.361328,-0.228737 1.001762,-0.691725 1.423199,-1.028864 0.888537,-0.710804 1.371303,-0.962179 2.463316,-1.282657 0.764641,-0.336083 2.344792,0.04872 2.63239,-0.47419 0.196984,-0.380926 0.164236,-0.600254 -0.13417,-0.898663 -0.722121,-0.446805 -1.575157,0.354725 -2.243322,0.498952 -0.526512,0.112707 -1.0362,0.236272 -1.132648,0.274595 -0.167603,0.0666 -0.169138,0.06015 -0.03471,-0.145594 0.539328,-0.8254 1.131556,-1.965914 1.08955,-2.098258 -0.02682,-0.08451 -0.151205,-0.200332 -0.276408,-0.257376 -0.304407,-0.138697 -0.408482,-0.04345 -0.79823,0.730514 -1.330298,2.641702 -3.0641,4.002708 -6.258113,4.912505 -0.748491,0.213203 -1.430033,0.4154 -1.514542,0.449324 -0.248992,0.09995 -0.188895,-0.08493 0.3951,-1.215583 0.506177,-0.979988 0.728541,-1.273389 1.422736,-1.877217 0.468524,-0.407537 0.135122,-1.166484 -0.512429,-1.166484 -0.386572,0 -0.668859,0.326993 -0.668859,0.774779 0,0.248287 -0.164519,0.555527 -0.80465,1.502703 -0.442561,0.654827 -0.980223,1.39946 -1.194809,1.654736 -0.88831,1.056751 -2.324253,1.680882 -4.212361,1.830904 -0.398391,0.03164 -0.722627,0.08136 -0.720527,0.110447 0.002,0.02909 0.229282,0.298266 0.504846,0.598162 l 0.501028,0.545265 0.965794,-0.09038 c 1.073097,-0.100421 1.96632,-0.05184 2.737011,0.148882 0.630766,0.164272 2.356937,1.113879 2.6432,1.454082 0.267479,0.317876 0.741672,0.344851 1.045449,0.05947 z M 34.947159,24.107427 c 0.115903,-0.03088 0.423258,-0.427247 0.821626,-1.059551 0.976669,-1.550208 2.105097,-2.656778 3.228615,-3.166071 0.391673,-0.177546 0.662439,-0.232777 1.200308,-0.244856 2.24314,-1.007365 -0.143988,-0.590271 -1.308284,-0.6727 -0.05988,-0.06092 0.841778,-1.864322 1.138872,-2.277864 0.47947,-0.667377 0.405011,-0.782936 -0.21504,-0.333772 -0.87141,0.631241 -1.560118,1.603378 -1.922534,2.713714 -0.06206,0.190123 -0.224441,0.390996 -0.425864,0.526796 -0.17906,0.120724 -0.712295,0.589809 -1.184966,1.042412 -0.973927,0.932567 -0.995725,0.92347 -0.686265,-0.286502 0.381957,-1.493438 1.096432,-2.431257 2.680344,-3.51821 0.915655,-0.628363 1.944475,-1.393734 2.763088,-2.055535 0.534873,-0.432416 1.624125,-0.808675 2.225231,-1.461506 0.534682,-0.580696 2.895134,-2.700142 1.132572,-2.079689 -0.153337,0.05061 -1.868944,1.516511 -2.246144,1.737317 -0.377203,0.220803 -0.701766,0.385513 -0.721261,0.366018 -0.106139,-1.649628 2.094848,-3.350275 0.877751,-3.8597476 -0.573467,-0.2400497 -0.830429,0.8926536 -1.005269,1.5709256 -0.559073,1.860842 -1.086889,2.974478 -1.696264,3.578944 -0.484917,0.481008 -2.602797,1.957513 -2.602797,1.814573 0,-0.04737 0.06552,-0.473919 0.145594,-0.947889 0.130133,-0.770264 0.132615,-0.968978 0.02335,-1.871467 -0.18279,-1.509872 -0.157685,-2.118689 0.121282,-2.941295 2.536537,-4.3496029 1.454327,-5.1714839 -0.3925,-1.1825119 -0.254181,0.4799958 -0.49433,0.8405349 -0.533665,0.8011989 C 36.204185,10.139402 35.682603,8.4909338 35.510783,7.6005753 35.24829,6.6310994 36.06778,5.1667081 34.946063,5.1062045 c -1.49127,0.081556 0.221548,4.4760571 0.473923,5.3046965 0.947503,3.023095 1.045744,4.300616 0.471902,6.136552 -0.235634,0.753886 -0.982817,2.431074 -1.083039,2.431074 -0.938979,-1.79484 -3.05764,-8.805898 -2.328967,-3.445631 0.08958,0.791189 0.368079,1.73206 0.848568,2.866828 0.745299,1.760163 0.814314,2.076831 0.814996,3.73959 3.98e-4,1.117038 -0.0316,1.533375 -0.14,1.818594 -0.07733,0.203444 -0.122354,0.388142 -0.100058,0.410434 0.02228,0.02228 0.224592,-0.01618 0.449559,-0.08552 0.224962,-0.06933 0.492353,-0.148256 0.594196,-0.175398 z m -8.991725,-0.277974 c -0.09908,-0.353199 -0.142055,-0.874084 -0.143047,-1.734042 -0.0016,-1.448822 0.103959,-1.899325 0.874434,-3.729356 0.543417,-1.290727 0.831708,-2.282371 0.831708,-2.860875 0.579341,-2.958307 -0.677952,-2.558186 -0.848297,0.247251 -0.149799,0.73616 -0.553271,1.718998 -1.092735,2.661858 l -0.378531,0.66159 -0.28869,-0.572642 c -1.370509,-2.718524 -1.474285,-4.594661 -0.432654,-7.821765 0.388417,-1.2033692 0.720715,-2.5202972 0.852752,-3.3795293 0.09511,-0.7727545 0.82334,-1.3498836 0.263326,-1.9390911 -2.135031,-0.8446472 -0.503256,5.0214024 -2.028425,4.9660114 -0.03873,-0.02395 -0.379551,-0.4358825 -0.627081,-0.8991535 -0.137768,-2.3389654 -1.998515,-1.8300189 -0.712183,0.158677 0.666986,1.0899215 0.766948,1.8046905 0.601063,4.2977705 -0.05927,0.890733 -0.04585,1.22827 0.07122,1.791675 0.07934,0.381799 0.126295,0.712132 0.104354,0.734073 -0.09326,0.09326 -2.278239,-1.440342 -2.682823,-1.883019 -0.580792,-0.635481 -1.035336,-1.60151 -1.607834,-3.417087 -0.595803,-0.66069 0.05475,-3.531559 -1.31814,-2.8304738 -0.286693,0.1526915 -0.405373,0.3479065 -0.408481,0.6718754 0.282561,0.8723824 0.59487,0.8940366 0.770614,1.6671854 0.109184,0.48414 0.33111,1.288587 0.49317,1.787663 0.16206,0.499076 0.280712,0.92237 0.263673,0.940653 -0.01706,0.01829 -0.220157,-0.08693 -0.451368,-0.233817 -0.231211,-0.146886 -0.687078,-0.397512 -1.013032,-0.556942 -3.594513,-1.667325 -2.525633,-0.304956 -0.01176,0.92031 0.414599,0.247155 1.174565,0.767673 1.688812,1.156701 0.514242,0.389031 1.592571,1.170034 2.396281,1.735559 0.803706,0.565525 1.673574,1.237149 1.93303,1.492497 0.751766,0.739847 1.255392,1.851885 1.439637,3.178807 l 0.06096,0.438999 -0.736791,-0.702396 C 23.41336,20.392098 22.865142,19.893417 22.60033,19.670231 22.174414,19.311263 22.090698,19.183378 21.874809,18.561912 21.74058,18.175523 21.515916,17.686461 21.375558,17.475111 c -0.326543,-0.491696 -1.420704,-1.322519 -1.559253,-1.183974 -0.02674,0.02674 0.174549,0.422596 0.447311,0.879675 0.503088,0.843045 0.845548,1.555272 0.845548,1.758521 0,0.225859 -0.828381,-0.05296 -1.092902,-0.367856 -0.193829,-0.23074 -0.304196,-0.285346 -0.576723,-0.285346 -0.590694,0 -0.914017,0.683232 -0.541201,1.143638 0.127619,0.157601 0.23803,0.193605 0.548749,0.178929 0.21394,-0.01012 0.499406,-0.02108 0.634369,-0.02439 0.357052,-0.0087 1.604753,0.641637 2.198571,1.146021 0.729382,0.619529 1.376037,1.413663 1.990955,2.445037 0.437568,0.733905 0.583764,0.910096 0.814848,0.982024 0.378618,0.117847 0.595786,0.164531 0.82202,0.176709 0.188453,0.01016 0.188644,0.0082 0.04758,-0.49466 z m -5.770637,21.349604 c 0.412654,-0.987619 1.70176,-3.013706 2.481045,-3.89945 0.627874,-0.713653 1.725131,-1.712092 1.881541,-1.712092 0.294794,0 0.09249,1.330569 -0.330508,2.173821 -0.346285,0.690318 -0.774217,1.213236 -1.47078,1.797243 -0.61336,0.514246 -2.566908,1.955405 -2.650628,1.955405 -0.02323,0 0.01698,-0.141716 0.08933,-0.314927 z m 18.747668,-0.362965 c -2.503787,-1.796753 -3.386929,-2.888108 -3.604822,-4.454686 -0.159801,-1.148918 0.01327,-1.127667 1.270547,0.156027 0.535363,0.5466 1.237819,1.366429 1.561014,1.821842 0.532833,0.750805 1.801423,3.035013 1.726207,3.108185 -0.01705,0.01662 -0.4459,-0.267506 -0.952946,-0.631368 z M 29.178741,32.895353 c -0.541141,-0.173811 -1.198375,-0.768486 -1.452516,-1.31425 -0.390713,-0.839048 -0.232144,-1.96214 0.37761,-2.674503 0.887625,-1.036988 2.478264,-1.148834 3.503537,-0.246353 1.70904,1.504356 0.797326,4.194045 -1.468021,4.330897 -0.341384,0.0206 -0.713802,-0.0165 -0.96061,-0.09579 z"
       id="path324-7"
       sodipodi:nodetypes="ssssssssssssccaassssssscssccsssssccsccsssssscccssccssscssccsssccsssccssscccsssssssssssscccsccccsssccsssscccssssssssscccssssssscccssssccssssacssscccsssssssssscscccssccssssccsssccccsssscccsccssscssccccssccssssssssssaaccsssssssssssscsscssssccccsssssssccccsscscccccsccsssscssccssscsscccsccacscssccccscsssssssssssscscssssssssccssssssssacscacssssccscccsccscsssssccsccscsscccccssssccccsssccsssscsssssssssssssssscccssssscsssssscssssc" /><text
       xml:space="preserve"
       style="font-style:normal;font-variant:normal;font-weight:normal;font-stretch:normal;font-size:31.7269px;line-height:0.9;font-family:Perpetua;-inkscape-font-specification:'Perpetua, Normal';font-variant-ligatures:normal;font-variant-caps:normal;font-variant-numeric:normal;font-variant-east-asian:normal;letter-spacing:-1.62402px;fill:#000000;fill-opacity:1;stroke:none;stroke-width:3.62868;stroke-linecap:round;stroke-dasharray:none;stroke-opacity:1"
       x="57.678581"
       y="25.280319"
       id="text10383"><tspan
         sodipodi:role="line"
         id="tspan10381"
         style="font-style:normal;font-variant:normal;font-weight:normal;font-stretch:normal;font-size:31.7269px;font-family:Montserrat;-inkscape-font-specification:'Montserrat, Normal';font-variant-ligatures:normal;font-variant-caps:normal;font-variant-numeric:normal;font-variant-east-asian:normal;fill:#000000;fill-opacity:1;stroke-width:3.62864"
         x="57.678581"
         y="25.280319">Dottori</tspan><tspan
         sodipodi:role="line"
         style="font-style:normal;font-variant:normal;font-weight:normal;font-stretch:normal;font-size:31.7269px;font-family:Montserrat;-inkscape-font-specification:'Montserrat, Normal';font-variant-ligatures:normal;font-variant-caps:normal;font-variant-numeric:normal;font-variant-east-asian:normal;fill:#000000;fill-opacity:1;stroke-width:3.62864"
         x="57.678581"
         y="57.633377"
         id="tspan10385">Lab</tspan></text></g></svg>
